<svg fill="none" xmlns="http://www.w3.org/2000/svg" viewBox="0 0 374 64" width="140px" height="24px" class="svg" aria-hidden="true"><path fill-rule="evenodd" clip-rule="evenodd" d="M32.9807 0C28.2797 0 24.0615 2.88418 22.3609 7.26138L0.315186 64H17.0623L34.415 19.3399H34.4223C34.8577 18.2513 35.9231 17.4823 37.1683 17.4823C38.4136 17.4823 39.4789 18.2513 39.9144 19.3399H42.2264V10.2808H37.9347L41.9293 0H32.9807Z" fill="#2545D3"></path><path fill-rule="evenodd" clip-rule="evenodd" d="M22.3621 7.2614C23.9938 3.06213 27.9423 0.236959 32.4112 0.0142052L32.4056 0H32.9819H39.4244H41.6409C46.3417 0 50.5599 2.88418 52.2607 7.26138L74.3063 64H57.2728L35.8947 8.97993C34.6708 6.28349 31.9523 4.40789 28.7952 4.40789C25.6304 4.40789 22.9063 6.2927 21.6866 8.99981L22.3621 7.2614Z" fill="#566DE8"></path><path d="M100.843 44.5685L104.111 35.8713H118.539L121.857 44.5685H128.041L114.92 9.37772H108.032L94.8608 44.5685H100.843ZM111.3 15.6115L116.93 30.9446H105.72L111.3 15.6115Z" fill="#050506"></path><path d="M130.762 36.0724C130.913 41.6527 135.639 44.8701 142.526 44.8701C148.76 44.8701 153.435 41.7532 153.435 36.8265C153.435 31.0954 148.659 29.8889 142.777 29.1851C139.057 28.7829 136.594 28.4813 136.594 26.0682C136.594 24.007 138.705 22.6999 141.923 22.6999C145.14 22.6999 147.352 24.3589 147.654 26.7217H152.983C152.631 21.4431 148.156 18.5273 141.822 18.5273C135.639 18.477 131.265 21.6442 131.265 26.5206C131.265 31.8495 135.89 33.1063 141.772 33.8102C145.743 34.3129 148.106 34.514 148.106 37.279C148.106 39.3401 145.894 40.6472 142.526 40.6472C138.605 40.6472 136.292 38.7369 136.091 36.0724H130.762Z" fill="#050506"></path><path d="M157.554 36.0724C157.705 41.6527 162.43 44.8701 169.318 44.8701C175.551 44.8701 180.227 41.7532 180.227 36.8265C180.227 31.0954 175.451 29.8889 169.569 29.1851C165.849 28.7829 163.385 28.4813 163.385 26.0682C163.385 24.007 165.497 22.6999 168.714 22.6999C171.932 22.6999 174.144 24.3589 174.445 26.7217H179.774C179.422 21.4431 174.948 18.5273 168.614 18.5273C162.43 18.477 158.057 21.6442 158.057 26.5206C158.057 31.8495 162.682 33.1063 168.564 33.8102C172.535 34.3129 174.898 34.514 174.898 37.279C174.898 39.3401 172.686 40.6472 169.318 40.6472C165.396 40.6472 163.084 38.7369 162.883 36.0724H157.554Z" fill="#050506"></path><path d="M198.159 44.8701C204.543 44.8701 208.867 40.9991 209.772 35.9216H204.342C203.588 38.7871 201.175 40.4461 197.857 40.4461C193.584 40.4461 190.819 37.5806 190.668 33.2069V32.855H210.073C210.174 32.1512 210.224 31.4474 210.224 30.7938C210.073 23.2529 205.096 18.5273 197.656 18.5273C190.065 18.5273 184.987 23.8059 184.987 31.749C184.987 39.6418 190.065 44.8701 198.159 44.8701ZM190.869 28.8835C191.271 25.2136 194.237 22.901 197.706 22.901C201.477 22.901 204.141 25.0627 204.594 28.8835H190.869Z" fill="#050506"></path><path d="M245.732 18.5273C241.509 18.5273 238.594 20.3874 236.935 23.2027C235.376 19.8847 232.36 18.5273 228.992 18.5273C225.121 18.5776 222.909 20.2869 221.451 22.1972L220.847 18.829H216.122V44.5685H221.551V30.7938C221.551 26.219 223.864 23.2027 227.584 23.2027C231.153 23.2027 233.013 25.5655 233.013 30.09V44.5685H238.493V30.643C238.493 26.0179 240.856 23.2027 244.576 23.2027C248.095 23.2027 249.955 25.5655 249.955 30.09V44.5685H255.385V29.7381C255.385 21.5939 251.061 18.5273 245.732 18.5273Z" fill="#050506"></path><path d="M275.589 18.5273C271.618 18.5273 268.953 20.3371 267.244 22.6497V9.37772H261.815V44.5685H266.54L267.194 40.8483C268.803 43.1609 271.568 44.8701 275.589 44.8701C282.628 44.8701 287.755 39.5915 287.755 31.6987C287.755 23.4038 282.628 18.5273 275.589 18.5273ZM274.685 40.2953C270.16 40.2953 267.194 36.726 267.194 31.6484C267.194 26.6715 270.16 23.1524 274.685 23.1524C279.209 23.1524 282.225 26.6715 282.225 31.6987C282.225 36.7762 279.209 40.2953 274.685 40.2953Z" fill="#050506"></path><path d="M293.614 44.5685H299.044V9.37772H293.614V44.5685Z" fill="#050506"></path><path d="M313.314 44.7193L312.309 47.2329C311.504 49.3444 311.002 49.8471 308.89 49.8471H305.07V54.623H310.901C314.672 54.623 315.778 52.7629 317.386 48.5903L329.05 18.829H323.268L316.28 38.385L309.091 18.829H303.31L313.314 44.7193Z" fill="#050506"></path><path d="M335.698 44.5685L338.966 35.8713H353.394L356.712 44.5685H362.896L349.775 9.37772H342.887L329.716 44.5685H335.698ZM346.155 15.6115L351.786 30.9446H340.575L346.155 15.6115Z" fill="#050506"></path><path d="M368.013 44.5685H373.794V9.37772H368.013V44.5685Z" fill="#050506"></path></svg>